<svg xmlns="http://www.w3.org/2000/svg" viewBox="0 0 278.07 124.38"><defs><style>.cls-1{fill:#f9f7f7;}</style></defs><title>logo</title><g id="Layer_2" data-name="Layer 2"><g id="Layer_1-2" data-name="Layer 1"><path class="cls-1" d="M74.41,88.42a29.05,29.05,0,0,1-4.28,15.66A34.23,34.23,0,0,1,59,115.24a56.56,56.56,0,0,1-17.18,6.82,96.77,96.77,0,0,1-21.93,2.32q-5.82,0-12.06-.54c-4.17-.35-6.52-.57-7.08-.65L0,107.64q1.07.12,8.25.65t14.3.54a103.61,103.61,0,0,0,10.68-.71A37,37,0,0,0,44,105.51a21.47,21.47,0,0,0,8.78-6.41A14.79,14.79,0,0,0,55.66,90a12,12,0,0,0-2.49-7.89,29.88,29.88,0,0,0-6.89-5.88,84.51,84.51,0,0,0-13-6.82,129.94,129.94,0,0,1-13.83-6.94A36.71,36.71,0,0,1,7.3,50.91,28.16,28.16,0,0,1,3.09,35.49,27.21,27.21,0,0,1,7.9,19.7,35.29,35.29,0,0,1,20.8,8.43a46.24,46.24,0,0,1,15.51-5A113.69,113.69,0,0,1,52.78,2.14q7.24,0,11.89.23c3.09.17,4.87.24,5.35.24L71.33,18.4q-.84,0-7.32-.48t-14.22-.47a54.35,54.35,0,0,0-10.4.95A31.2,31.2,0,0,0,31,21.12a17.6,17.6,0,0,0-7.32,6.29,13.88,13.88,0,0,0-2.2,7.13,11.82,11.82,0,0,0,3.09,8.18,28.88,28.88,0,0,0,7.26,5.82q4.88,2.85,13.32,6.76A126.08,126.08,0,0,1,57.4,61.59,41.84,41.84,0,0,1,70.07,73.23,26.44,26.44,0,0,1,74.41,88.42Z"/><path class="cls-1" d="M278.07,123.19H259.31q.12-1.31.3-16.62t.18-28.84q0-5.34-.06-17.5T259.55,42q-.36-14.23-5.64-19.7t-16.32-5.46q-6.53,0-15.48,3.24a116.44,116.44,0,0,0-20.24,10.05c0,.4,0,1.19.06,2.38s.06,2.72.06,4.62q0,9.6-.12,19.5t-.12,18.9q0,19.68.3,33.07t.3,14.58H183.6q0-1.31.23-14.36T184.07,78q0-5.93-.06-18t-.18-17.74a64.72,64.72,0,0,0-1-10,20.53,20.53,0,0,0-3.08-8.07,15.73,15.73,0,0,0-6.41-5.52q-3.91-1.83-11.16-1.84-6.64,0-15.54,3.89a155.45,155.45,0,0,0-20.42,11.18q0,2-.11,15.12T126,68.43q0,14.11.29,33.84t.3,20.92H107.88q0-.94.24-13.83t.23-42.66q0-9.73-.06-26.23t-.41-37.38h18.51l-.12,13.64.12.12a124.14,124.14,0,0,1,20-11.27Q158.44,0,167.69,0q11.64,0,19.41,4.87a27.77,27.77,0,0,1,11.09,12.34h.24a153,153,0,0,1,25.1-12.82Q235,0,243.05,0q16.38,0,25.58,9.55t9.2,25.82q0,12.57-.18,21.18t-.18,18.22q0,19.94.3,33.7T278.07,123.19Z"/></g></g></svg>